<svg width="370" height="245" fill="none" xmlns="http://www.w3.org/2000/svg"><path d="m303.092 170.822-49.041-28.33c-3.013-1.734-2.629-4.776.838-6.78l47.35-27.349c3.482-2.005 8.74-2.232 11.739-.484l49.041 28.33c3.012 1.734 2.629 4.776-.839 6.78l-47.35 27.349c-3.481 2.005-8.739 2.232-11.738.484Z" fill="url(#a)"/><path d="M308.221 159.29c-2.402 0-4.704-.512-6.523-1.563l-49.041-28.33c-2.175-1.251-3.425-3.213-3.425-5.359 0-2.402 1.549-4.677 4.263-6.254l47.35-27.35c4.377-2.53 10.63-2.743 14.524-.483l49.041 28.33c2.174 1.251 3.424 3.213 3.424 5.359 0 2.402-1.548 4.691-4.263 6.254l-47.35 27.349c-2.345 1.365-5.244 2.047-8.015 2.047h.015Zm-3.738-6.382c2.16 1.251 6.352 1.023 8.953-.483l47.35-27.349c1.194-.683 1.478-1.308 1.478-1.422-.014-.028-.171-.256-.64-.526l-49.041-28.33c-2.16-1.25-6.338-1.023-8.952.484L256.28 122.63c-1.193.682-1.477 1.308-1.477 1.421.014.029.17.27.639.526l49.041 28.33Z" fill="url(#b)"/><path d="M308.412 99.748c6.558 0 11.874-5.315 11.874-11.874 0-6.558-5.316-11.874-11.874-11.874-6.559 0-11.874 5.316-11.874 11.874 0 6.559 5.315 11.874 11.874 11.874Zm8.312 2.969h-1.549a16.173 16.173 0 0 1-6.763 1.484c-2.412 0-4.694-.538-6.763-1.484H300.1c-6.883 0-12.468 5.584-12.468 12.467v3.859a4.454 4.454 0 0 0 4.453 4.453h32.654a4.453 4.453 0 0 0 4.452-4.453v-3.859c0-6.883-5.584-12.467-12.467-12.467Z" fill="#9DB8FF"/><path d="M58.86 170.822 9.82 142.492c-3.013-1.734-2.629-4.776.838-6.78l47.35-27.349c3.482-2.005 8.74-2.232 11.739-.484l49.041 28.33c3.012 1.734 2.629 4.776-.839 6.78l-47.35 27.349c-3.481 2.005-8.74 2.232-11.738.484Z" fill="url(#c)"/><path d="M63.989 159.29c-2.402 0-4.704-.512-6.523-1.563l-49.041-28.33C6.25 128.146 5 126.184 5 124.038c0-2.402 1.549-4.677 4.263-6.254l47.35-27.35c4.377-2.53 10.63-2.743 14.524-.483l49.041 28.33c2.174 1.251 3.425 3.213 3.425 5.359 0 2.402-1.549 4.691-4.264 6.254l-47.35 27.349c-2.345 1.365-5.243 2.047-8.015 2.047h.015Zm-3.738-6.382c2.16 1.251 6.352 1.023 8.953-.483l47.35-27.349c1.194-.683 1.478-1.308 1.478-1.422-.014-.028-.171-.256-.64-.526l-49.04-28.33c-2.16-1.25-6.339-1.023-8.953.484l-47.35 27.349c-1.194.682-1.478 1.308-1.478 1.421.014.029.17.27.64.526l49.04 28.33Z" fill="url(#d)"/><path d="M214.054 113.163a1.21 1.21 0 0 0 .015-1.711l-7.636-7.796a1.21 1.21 0 0 0-1.711-.021 1.21 1.21 0 0 0-.014 1.711l6.787 6.93-6.903 6.76a1.21 1.21 0 0 0-.014 1.711 1.21 1.21 0 0 0 1.711.022l7.765-7.606Zm-66.202-.461 65.344.805.02-2.42-65.343-.805-.021 2.42Z" fill="url(#e)"/><path d="M147.014 130.92a1.21 1.21 0 0 1-.014-1.711l7.636-7.796a1.21 1.21 0 0 1 1.711-.022 1.21 1.21 0 0 1 .014 1.712l-6.787 6.93 6.902 6.759c.476.467.482 1.233.014 1.712a1.21 1.21 0 0 1-1.711.021l-7.765-7.605Zm66.202-.471-65.343.815-.02-2.42 65.343-.815.02 2.42Z" fill="url(#f)"/><g filter="url(#g)"><rect x="5" y="144.925" width="110.551" height="23.034" rx="11.517" fill="#fff" shape-rendering="crispEdges"/><path opacity=".8" d="M12.808 161.441v-10.47h1.897v8.88h4.611v1.59h-6.508Zm7.929 0v-7.852h1.85v7.852h-1.85Zm.93-8.967a1.08 1.08 0 0 1-.757-.291.94.94 0 0 1-.317-.711c0-.279.106-.516.317-.71.212-.198.464-.297.757-.297.297 0 .549.099.757.297a.928.928 0 0 1 .317.71.94.94 0 0 1-.317.711c-.208.194-.46.291-.757.291Zm4.53 4.366v4.601h-1.85v-7.852h1.768v1.334h.092c.181-.44.469-.789.864-1.048.4-.259.892-.388 1.478-.388.542 0 1.014.115 1.416.347.406.232.72.568.94 1.007.226.44.336.973.333 1.6v5h-1.85v-4.713c0-.525-.137-.936-.41-1.232-.269-.297-.642-.445-1.12-.445a1.71 1.71 0 0 0-.863.215 1.483 1.483 0 0 0-.588.608c-.14.266-.21.588-.21.966Zm10.194 7.71c-.665 0-1.236-.091-1.713-.271-.477-.177-.86-.416-1.15-.716-.29-.3-.491-.632-.604-.997l1.667-.404c.075.154.184.305.327.455.143.154.336.28.578.379.245.102.554.153.925.153.525 0 .96-.128 1.304-.383.344-.253.516-.669.516-1.248v-1.488h-.092a2.62 2.62 0 0 1-.42.588c-.18.201-.42.37-.72.506-.297.137-.67.205-1.12.205-.603 0-1.15-.142-1.64-.424-.488-.287-.877-.713-1.166-1.278-.287-.57-.43-1.282-.43-2.137 0-.863.143-1.59.43-2.183.29-.597.68-1.049 1.17-1.355a3.01 3.01 0 0 1 1.642-.465c.46 0 .838.078 1.134.235.3.153.539.339.716.557.178.215.312.417.404.608h.102v-1.298h1.826v7.98c0 .672-.16 1.227-.481 1.667-.32.44-.758.768-1.314.987-.555.218-1.186.327-1.891.327Zm.015-4.673c.392 0 .726-.095 1.002-.286a1.77 1.77 0 0 0 .629-.823c.143-.358.214-.788.214-1.289 0-.494-.071-.927-.214-1.298-.14-.372-.348-.66-.624-.864-.273-.208-.608-.312-1.007-.312-.413 0-.757.107-1.033.322-.276.215-.484.51-.624.884-.14.372-.21.795-.21 1.268 0 .481.07.902.21 1.263.143.358.353.637.63.838.279.198.621.297 1.027.297Zm12.438-6.288-2.797 7.852h-2.045l-2.797-7.852h1.974l1.805 5.833h.081l1.81-5.833h1.968Zm3.17 8.011a3.28 3.28 0 0 1-1.344-.266 2.197 2.197 0 0 1-.94-.797c-.229-.352-.343-.784-.343-1.299 0-.443.082-.81.245-1.099a1.89 1.89 0 0 1 .67-.695c.283-.174.602-.306.956-.394a7.79 7.79 0 0 1 1.11-.2c.46-.047.833-.09 1.12-.127.286-.041.493-.103.623-.184.133-.086.2-.217.2-.394v-.031c0-.385-.115-.683-.343-.894-.229-.212-.557-.317-.987-.317-.453 0-.813.098-1.079.296-.262.198-.44.431-.531.701l-1.728-.246c.136-.477.361-.876.675-1.196a2.93 2.93 0 0 1 1.15-.726 4.39 4.39 0 0 1 1.503-.245c.378 0 .755.044 1.13.132a3.2 3.2 0 0 1 1.027.44c.31.201.56.476.747.823.19.348.286.782.286 1.304v5.255h-1.78v-1.078h-.06a2.262 2.262 0 0 1-.476.613 2.28 2.28 0 0 1-.762.455c-.303.113-.66.169-1.068.169Zm.481-1.36c.372 0 .694-.073.967-.22a1.62 1.62 0 0 0 .628-.593 1.51 1.51 0 0 0 .225-.803v-.925a.868.868 0 0 1-.296.133 4.03 4.03 0 0 1-.46.107c-.17.031-.34.058-.506.082l-.435.062a3.166 3.166 0 0 0-.741.184c-.218.085-.39.204-.517.357-.126.15-.189.345-.189.583 0 .341.125.598.374.772.248.174.565.261.95.261Zm7.234-3.4v4.601h-1.851v-7.852h1.769v1.334h.092c.18-.44.469-.789.864-1.048.399-.259.891-.388 1.477-.388.542 0 1.014.115 1.416.347.406.232.72.568.941 1.007.225.44.336.973.332 1.6v5h-1.85v-4.713c0-.525-.136-.936-.41-1.232-.268-.297-.642-.445-1.119-.445a1.71 1.71 0 0 0-.864.215 1.483 1.483 0 0 0-.588.608c-.14.266-.21.588-.21.966Zm10.254 4.755c-.787 0-1.467-.164-2.04-.491a3.328 3.328 0 0 1-1.313-1.401c-.307-.606-.46-1.321-.46-2.142 0-.808.153-1.517.46-2.127.31-.613.743-1.09 1.298-1.431.556-.344 1.208-.516 1.958-.516.484 0 .94.078 1.37.235a3.1 3.1 0 0 1 1.145.715c.335.324.597.737.788 1.238.19.497.286 1.09.286 1.779v.567H67.04v-1.247H71.7a1.99 1.99 0 0 0-.23-.946 1.683 1.683 0 0 0-.629-.66 1.77 1.77 0 0 0-.93-.24c-.379 0-.71.092-.997.276-.286.181-.51.419-.67.716a2.06 2.06 0 0 0-.24.966v1.089c0 .457.083.849.25 1.176.167.324.4.573.7.746.3.171.652.256 1.054.256.27 0 .513-.037.731-.112.218-.079.407-.193.568-.343.16-.15.28-.336.362-.557l1.728.194c-.109.457-.316.856-.623 1.196-.304.338-.692.6-1.166.788-.474.184-1.016.276-1.626.276Zm6.258-8.006 1.585 2.898 1.61-2.898h1.959l-2.367 3.926 2.408 3.926h-1.948l-1.662-2.827-1.646 2.827h-1.963l2.392-3.926-2.33-3.926h1.962Zm9.95 7.852v-10.47h1.85v3.916h.078c.095-.191.23-.393.403-.608a2.14 2.14 0 0 1 .706-.557c.296-.157.675-.235 1.135-.235.606 0 1.153.155 1.64.465.492.306.88.761 1.166 1.365.29.6.435 1.336.435 2.208 0 .863-.141 1.595-.424 2.199-.283.603-.668 1.063-1.156 1.38a2.97 2.97 0 0 1-1.656.475c-.45 0-.823-.075-1.12-.225a2.266 2.266 0 0 1-.715-.541 3.51 3.51 0 0 1-.415-.609h-.107v1.237h-1.82Zm1.815-3.926c0 .508.072.953.215 1.334.146.382.356.68.629.895.276.211.61.317 1.002.317.409 0 .751-.109 1.027-.327a2.02 2.02 0 0 0 .624-.905c.143-.385.215-.823.215-1.314 0-.487-.07-.92-.21-1.298a1.95 1.95 0 0 0-.624-.89c-.276-.215-.62-.322-1.032-.322-.396 0-.731.104-1.008.312-.276.208-.485.499-.628.874-.14.375-.21.816-.21 1.324Zm10.453 4.08c-.767 0-1.432-.169-1.994-.506a3.445 3.445 0 0 1-1.309-1.416c-.307-.607-.46-1.316-.46-2.127 0-.811.153-1.522.46-2.132.31-.61.747-1.084 1.309-1.421.562-.338 1.227-.506 1.994-.506.767 0 1.431.168 1.994.506a3.39 3.39 0 0 1 1.303 1.421c.31.61.465 1.321.465 2.132 0 .811-.155 1.52-.465 2.127a3.406 3.406 0 0 1-1.303 1.416c-.563.337-1.227.506-1.994.506Zm.01-1.483c.416 0 .763-.114 1.043-.342.28-.232.487-.542.624-.931a3.83 3.83 0 0 0 .209-1.298c0-.481-.07-.915-.209-1.304a2.069 2.069 0 0 0-.624-.936c-.28-.231-.627-.347-1.043-.347-.426 0-.78.116-1.063.347a2.1 2.1 0 0 0-.63.936 3.922 3.922 0 0 0-.204 1.304c0 .477.069.91.205 1.298.14.389.35.699.629.931.282.228.637.342 1.063.342Zm9.101-6.523v1.431h-4.515v-1.431h4.515Zm-3.4-1.882h1.85v7.372c0 .249.038.44.113.573.078.13.181.218.307.266.126.048.266.071.419.071.116 0 .221-.008.317-.025.099-.017.174-.032.225-.046l.312 1.447a4.238 4.238 0 0 1-.425.112c-.18.041-.402.065-.664.072a3.02 3.02 0 0 1-1.253-.21 1.952 1.952 0 0 1-.884-.726c-.215-.327-.321-.736-.317-1.227v-7.679Z" fill="#000"/></g><path d="M77.29 114.424a5.407 5.407 0 0 1 5.407 5.407v2.061h-.016c-.101 2.329-.74 5.25-3.355 7.636-2.857 2.607-7.789 4.311-16.053 4.311-8.265 0-13.196-1.704-16.053-4.311-2.615-2.386-3.254-5.307-3.355-7.636h-.016v-2.061a5.407 5.407 0 0 1 5.407-5.407H77.29ZM52.814 89.014a4.483 4.483 0 0 0-4.483 4.482v11.954a4.482 4.482 0 0 0 4.483 4.482h20.919a4.483 4.483 0 0 0 4.482-4.482V93.496a4.483 4.483 0 0 0-4.483-4.482h-8.965V87.52c0-.923-.669-1.495-1.494-1.495s-1.494.69-1.494 1.495v1.494h-8.965Zm1.494 10.459a2.988 2.988 0 1 1 5.977 0 2.988 2.988 0 0 1-5.977 0Zm11.954 0a2.988 2.988 0 1 1 5.976 0 2.988 2.988 0 0 1-5.976 0Z" fill="#9DB8FF"/><defs><linearGradient id="a" x1="308.535" y1="235.957" x2="281.432" y2="111.6" gradientUnits="userSpaceOnUse"><stop stop-color="#0D9AFF" stop-opacity=".01"/><stop offset="1" stop-color="#0D9AFF" stop-opacity=".12"/></linearGradient><linearGradient id="b" x1="261.62" y1="146.524" x2="376.019" y2="115.345" gradientUnits="userSpaceOnUse"><stop offset=".158" stop-color="#A5BDFF" stop-opacity=".46"/><stop offset="1" stop-color="#A5BDFF" stop-opacity="0"/></linearGradient><linearGradient id="c" x1="64.303" y1="235.957" x2="37.2" y2="111.6" gradientUnits="userSpaceOnUse"><stop stop-color="#0D9AFF" stop-opacity=".01"/><stop offset="1" stop-color="#0D9AFF" stop-opacity=".12"/></linearGradient><linearGradient id="d" x1="17.388" y1="146.524" x2="131.787" y2="115.345" gradientUnits="userSpaceOnUse"><stop offset=".158" stop-color="#A5BDFF" stop-opacity=".46"/><stop offset="1" stop-color="#A5BDFF" stop-opacity="0"/></linearGradient><linearGradient id="e" x1="213.206" y1="112.287" x2="143.24" y2="111.731" gradientUnits="userSpaceOnUse"><stop stop-color="#0146FE"/><stop offset="1" stop-color="#0146FE" stop-opacity="0"/></linearGradient><linearGradient id="f" x1="147.863" y1="130.044" x2="217.828" y2="129.496" gradientUnits="userSpaceOnUse"><stop stop-color="#0146FE"/><stop offset="1" stop-color="#0146FE" stop-opacity="0"/></linearGradient><filter id="g" x=".483" y="144.925" width="119.584" height="32.067" filterUnits="userSpaceOnUse" color-interpolation-filters="sRGB"><feFlood flood-opacity="0" result="BackgroundImageFix"/><feColorMatrix in="SourceAlpha" values="0 0 0 0 0 0 0 0 0 0 0 0 0 0 0 0 0 0 127 0" result="hardAlpha"/><feOffset dy="4.517"/><feGaussianBlur stdDeviation="2.258"/><feComposite in2="hardAlpha" operator="out"/><feColorMatrix values="0 0 0 0 0 0 0 0 0 0 0 0 0 0 0 0 0 0 0.08 0"/><feBlend in2="BackgroundImageFix" result="effect1_dropShadow_238_189"/><feBlend in="SourceGraphic" in2="effect1_dropShadow_238_189" result="shape"/></filter></defs></svg>