<svg width="368" height="245" fill="none" xmlns="http://www.w3.org/2000/svg"><circle opacity=".1" cx="92.917" cy="125.31" r="64.62" fill="url(#a)"/><circle opacity=".2" cx="92.915" cy="125.31" r="54.151" fill="url(#b)"/><circle opacity=".3" cx="92.919" cy="125.31" r="44.043" fill="url(#c)"/><circle cx="92.734" cy="125.337" r="34.476" fill="#0146FE"/><path d="M107.851 120.977c1.069 0 1.936.854 1.936 1.912 0 8.602-6.595 15.705-15.052 16.659v3.849c0 1.055-.867 1.912-1.936 1.912a1.924 1.924 0 0 1-1.936-1.912v-3.849c-8.46-.954-15.054-8.057-15.054-16.659 0-1.058.868-1.912 1.936-1.912 1.069 0 1.936.854 1.936 1.912 0 7.141 5.885 12.951 13.118 12.951 7.232 0 13.116-5.81 13.116-12.951 0-1.058.867-1.912 1.936-1.912Zm-14.704-15.643c3.987 0 7.346 2.647 8.374 6.258a.775.775 0 0 1-.751.987h-2.263c-.684 0-1.24.547-1.24 1.222 0 .678.556 1.225 1.24 1.225h2.087c.691 0 1.253.553 1.253 1.235 0 .683-.562 1.236-1.253 1.236h-2.087c-.684 0-1.24.548-1.24 1.225 0 .675.556 1.224 1.24 1.224h2.087c.691 0 1.253.552 1.253 1.237 0 .681-.562 1.233-1.253 1.233h-2.087c-.684 0-1.24.549-1.24 1.226a1.23 1.23 0 0 0 1.24 1.221h2.153c.53 0 .91.513.743 1.01-1.148 3.415-4.409 5.877-8.256 5.877h-.699c-4.803 0-8.697-3.845-8.697-8.586v-9.241c0-4.744 3.894-8.589 8.697-8.589h.7Z" fill="#fff"/><rect opacity=".1" x="130.505" y="117.018" width="2.003" height="16.681" rx="1.002" fill="#3E7DFA"/><rect opacity=".2" x="136.798" y="110.172" width="2.003" height="30.374" rx="1.002" fill="#3E7DFA"/><rect opacity=".3" x="143.096" y="102.329" width="2.003" height="46.058" rx="1.002" fill="#3E7DFA"/><rect opacity=".4" x="149.389" y="96.029" width="2.003" height="58.66" rx="1.002" fill="#3E7DFA"/><rect opacity=".5" x="155.687" y="102.296" width="2.003" height="46.124" rx="1.002" fill="#3E7DFA"/><rect opacity=".6" x="161.98" y="110.186" width="2.003" height="30.345" rx="1.002" fill="#3E7DFA"/><rect opacity=".7" x="168.277" y="93.167" width="2.003" height="64.383" rx="1.002" fill="#3E7DFA"/><rect opacity=".8" x="174.57" y="95.885" width="2.003" height="58.946" rx="1.002" fill="#3E7DFA"/><rect opacity=".9" x="180.868" y="110.186" width="2.003" height="30.345" rx="1.002" fill="#3E7DFA"/><rect x="187.161" y="102.296" width="2.003" height="46.124" rx="1.002" fill="#3E7DFA"/><rect x="193.458" y="102.296" width="2.003" height="46.124" rx="1.002" fill="#3E7DFA"/><rect opacity=".9" x="199.751" y="88.159" width="2.003" height="74.398" rx="1.002" fill="#3E7DFA"/><rect opacity=".8" x="206.049" y="102.296" width="2.003" height="46.124" rx="1.002" fill="#3E7DFA"/><rect opacity=".7" x="212.341" y="110.186" width="2.003" height="30.345" rx="1.002" fill="#3E7DFA"/><rect opacity=".6" x="218.639" y="117.014" width="2.003" height="16.689" rx="1.002" fill="#3E7DFA"/><rect opacity=".5" x="224.933" y="108.476" width="2.003" height="33.765" rx="1.002" fill="#3E7DFA"/><rect opacity=".4" x="231.23" y="103.325" width="2.003" height="44.066" rx="1.002" fill="#3E7DFA"/><rect opacity=".3" x="237.522" y="106.615" width="2.003" height="37.485" rx="1.002" fill="#3E7DFA"/><rect opacity=".2" x="243.821" y="110.186" width="2.003" height="30.345" rx="1.002" fill="#3E7DFA"/><rect opacity=".1" x="250.113" y="117.014" width="2.003" height="16.689" rx="1.002" fill="#3E7DFA"/><g filter="url(#d)" fill="#fff"><path d="M336.381 115.122c5.471 20.42-6.647 41.41-27.068 46.882-20.421 5.472-41.411-6.647-46.882-27.067-5.472-20.421 6.646-41.411 27.067-46.883 20.421-5.472 41.411 6.647 46.883 27.068Z"/><path d="M330.332 164.084a1.419 1.419 0 0 1-1.813 1.388l-18.257-5.281c-1.119-.323-1.393-1.782-.468-2.49l17.922-13.721c.925-.708 2.262-.062 2.282 1.102l.334 19.002Z"/></g><path d="m304.536 137.059-3.08-8.746h-12.042l-3.081 8.746h-5.45l11.719-31.624h5.73l11.698 31.624h-5.494Zm-4.416-13.184-2.994-8.617c-.115-.373-.28-.898-.496-1.573-.215-.689-.43-1.385-.646-2.089-.215-.718-.395-1.321-.538-1.81-.144.589-.324 1.25-.539 1.982a60.582 60.582 0 0 1-.603 2.025c-.187.632-.331 1.12-.431 1.465l-3.016 8.617h9.263Z" fill="#001624"/><path d="M314.157 143.886a10.244 10.244 0 0 0 1.419-2.045 4.62 4.62 0 0 0 .626-2.341v-.264a5.932 5.932 0 0 1-1.814-.627 5.708 5.708 0 0 1-1.451-1.154 5.725 5.725 0 0 1-.956-1.583 5.466 5.466 0 0 1-.33-1.913c0-.748.143-1.44.429-2.078.285-.66.67-1.231 1.154-1.715a5.126 5.126 0 0 1 1.682-1.122 5.185 5.185 0 0 1 2.078-.428c.945 0 1.781.209 2.506.626a5.662 5.662 0 0 1 1.814 1.649 7.454 7.454 0 0 1 1.089 2.309c.264.836.396 1.693.396 2.573a11.1 11.1 0 0 1-.396 2.935c-.264.968-.649 1.88-1.155 2.738a9.637 9.637 0 0 1-1.814 2.308 9.07 9.07 0 0 1-2.44 1.682l-2.837-1.55Z" fill="#0146FE"/><defs><radialGradient id="a" cx="0" cy="0" r="1" gradientUnits="userSpaceOnUse" gradientTransform="rotate(161.143 36.18 70.39) scale(68.5494 68.2848)"><stop offset=".375" stop-color="#3E7DFA" stop-opacity="0"/><stop offset="1" stop-color="#3E7DFA" stop-opacity=".4"/></radialGradient><radialGradient id="b" cx="0" cy="0" r="1" gradientUnits="userSpaceOnUse" gradientTransform="rotate(161.143 36.158 70.387) scale(57.4436 57.2219)"><stop offset=".375" stop-color="#3E7DFA" stop-opacity="0"/><stop offset="1" stop-color="#3E7DFA" stop-opacity=".4"/></radialGradient><radialGradient id="c" cx="0" cy="0" r="1" gradientUnits="userSpaceOnUse" gradientTransform="rotate(161.143 36.14 70.384) scale(46.7208 46.5405)"><stop offset=".375" stop-color="#3E7DFA" stop-opacity="0"/><stop offset="1" stop-color="#3E7DFA" stop-opacity=".4"/></radialGradient><filter id="d" x="246.392" y="86.74" width="106.027" height="110.777" filterUnits="userSpaceOnUse" color-interpolation-filters="sRGB"><feFlood flood-opacity="0" result="BackgroundImageFix"/><feColorMatrix in="SourceAlpha" values="0 0 0 0 0 0 0 0 0 0 0 0 0 0 0 0 0 0 127 0" result="hardAlpha"/><feOffset dy="17.263"/><feGaussianBlur stdDeviation="7.362"/><feComposite in2="hardAlpha" operator="out"/><feColorMatrix values="0 0 0 0 0.489149 0 0 0 0 0.59323 0 0 0 0 0.670833 0 0 0 0.16 0"/><feBlend in2="BackgroundImageFix" result="effect1_dropShadow_238_153"/><feBlend in="SourceGraphic" in2="effect1_dropShadow_238_153" result="shape"/></filter></defs></svg>