<svg width="368" height="245" fill="none" xmlns="http://www.w3.org/2000/svg"><path d="M64.834 193.207 9.973 161.774c-2.008-1.155-1.762-3.166.558-4.491l58.147-33.397c2.32-1.334 5.833-1.475 7.84-.319l54.862 31.432c2.007 1.156 1.761 3.167-.559 4.492l-58.147 33.396c-2.32 1.335-5.833 1.476-7.84.32Z" fill="url(#a)"/><path d="M68.253 182.881c-1.563 0-3.078-.329-4.223-.987L9.168 150.462C7.786 149.672 7 148.451 7 147.116c0-1.512.994-2.941 2.736-3.937l58.147-33.396c2.813-1.617 6.97-1.758 9.47-.32l54.86 31.433c1.383.789 2.169 2.011 2.169 3.345 0 1.513-.994 2.941-2.737 3.937l-58.137 33.397c-1.515.864-3.418 1.306-5.246 1.306h-.01Zm-2.604-3.778c1.505.865 4.412.715 6.22-.319l58.138-33.397c.815-.469 1.108-.939 1.108-1.146 0-.122-.17-.338-.54-.554l-54.861-31.433c-1.505-.864-4.412-.714-6.22.32L11.355 145.97c-.815.47-1.108.94-1.108 1.146 0 .123.17.339.549.555l54.861 31.432h-.01Z" fill="url(#b)"/><path d="M98.194 118.017c4.213 14.979-4.565 30.656-20.014 34.836-15.099 4.181-30.9-4.528-35.113-19.857-4.213-14.979 4.565-30.656 20.014-34.836 15.099-4.18 30.9 4.528 35.113 19.857Z" fill="#0146FE"/><path d="m82.942 116.084-3.105 3.813-3.105-3.813h2.179v-.926a2.782 2.782 0 0 0-2.78-2.779h-.926v-1.853h.927a4.637 4.637 0 0 1 4.631 4.632v.926h2.179Zm-18.853 11.117h-5.867a1.55 1.55 0 0 1-1.544-1.544v-11.735a1.543 1.543 0 0 1 1.544-1.543h11.735a1.545 1.545 0 0 1 1.543 1.543v5.868h1.853v-5.868a3.4 3.4 0 0 0-3.396-3.396H58.222a3.399 3.399 0 0 0-3.396 3.396v11.735a3.397 3.397 0 0 0 3.396 3.396h5.867v-1.852Zm3.21-7.33c.332-.619.609-1.266.827-1.934h1.521v-1.853h-4.596l.237-.239-1.958-1.96-1.31 1.31.889.889H58.53v1.853h1.423a11.442 11.442 0 0 0 2.627 4.472 10.803 10.803 0 0 1-3.316 1.423l.448 1.797a12.444 12.444 0 0 0 4.32-1.975c.02.015.047.026.067.041a4.02 4.02 0 0 1 3.2-3.824Zm-5.378-1.934h4.232a9.366 9.366 0 0 1-2.127 3.292 9.173 9.173 0 0 1-2.104-3.292Zm19.198 22.232H69.291a3.353 3.353 0 0 1-3.35-3.349v-11.828a3.352 3.352 0 0 1 3.35-3.35H81.12a3.354 3.354 0 0 1 3.35 3.35v11.828a3.352 3.352 0 0 1-3.35 3.349Zm-11.828-16.674a1.5 1.5 0 0 0-1.497 1.497v11.828a1.5 1.5 0 0 0 1.497 1.497H81.12a1.5 1.5 0 0 0 1.497-1.497v-11.828a1.5 1.5 0 0 0-1.497-1.497H69.291Zm9.898 12.858 1.665-.814-5.649-11.56-5.649 11.56 1.666.816.852-1.744h6.262l.853 1.742Zm-6.21-3.594 2.226-4.558 2.227 4.558h-4.454Zm-8.89 5.558v1.852h-.926a4.636 4.636 0 0 1-4.632-4.631v-.927h-2.179l3.105-3.813 3.105 3.813h-2.178v.927a2.784 2.784 0 0 0 2.779 2.779h.926Z" fill="#fff"/><path d="m296.106 184.326-40.934-23.461c-2.514-1.436-2.194-3.955.7-5.615l39.522-22.648c2.906-1.66 7.295-1.848 9.798-.4l40.933 23.46c2.515 1.436 2.194 3.955-.7 5.615l-39.522 22.648c-2.906 1.66-7.294 1.848-9.797.401Z" fill="url(#c)"/><path d="M300.387 174.776c-2.005 0-3.926-.424-5.445-1.295l-40.933-23.46c-1.815-1.036-2.859-2.66-2.859-4.438 0-1.989 1.293-3.873 3.559-5.179l39.522-22.648c3.653-2.096 8.872-2.272 12.122-.401l40.933 23.461c1.815 1.036 2.859 2.66 2.859 4.438 0 1.989-1.293 3.884-3.559 5.179l-39.521 22.648c-1.958 1.13-4.377 1.695-6.69 1.695h.012Zm-3.12-5.285c1.803 1.036 5.302.847 7.473-.4l39.522-22.648c.996-.566 1.233-1.083 1.233-1.178-.012-.023-.142-.212-.534-.435l-40.933-23.461c-1.803-1.035-5.29-.847-7.473.401l-39.521 22.648c-.997.565-1.234 1.083-1.234 1.177.012.024.142.224.534.436l40.933 23.46Z" fill="url(#d)"/><path d="M300.547 125.468c5.475 0 9.911-4.402 9.911-9.833s-4.436-9.833-9.911-9.833c-5.474 0-9.911 4.402-9.911 9.833s4.437 9.833 9.911 9.833Zm6.938 2.458h-1.293a13.579 13.579 0 0 1-11.289 0h-1.293c-5.746 0-10.407 4.625-10.407 10.325v3.196c0 2.036 1.665 3.687 3.717 3.687h27.255c2.052 0 3.716-1.651 3.716-3.687v-3.196c0-5.7-4.661-10.325-10.406-10.325Z" fill="#9DB8FF"/><path d="m202.914 43.203-6.228-6.959a1.398 1.398 0 0 0-1.038-.46h-11.222a3.578 3.578 0 0 0-2.522 1.003 3.505 3.505 0 0 0-1.07 2.477v20.877a3.497 3.497 0 0 0 1.07 2.478c.333.323.727.578 1.16.75.433.171.896.257 1.362.251h15.262a3.57 3.57 0 0 0 2.522-1.001 3.496 3.496 0 0 0 1.069-2.478V44.136a1.385 1.385 0 0 0-.365-.933Zm-8.052-4.635 5.247 5.568H195.9a1.116 1.116 0 0 1-.769-.376 1.103 1.103 0 0 1-.269-.807v-4.385Z" fill="url(#e)"/><path d="m257.282 80.978-4.858-5.344a1.094 1.094 0 0 0-.809-.353h-8.754a2.829 2.829 0 0 0-1.062.194 2.778 2.778 0 0 0-.905.575c-.26.248-.468.544-.611.87a2.647 2.647 0 0 0-.223 1.033v16.033c.004.355.08.706.223 1.032.143.327.351.623.611.87.26.249.568.445.905.577.338.132.699.197 1.062.193h11.905c.363.004.724-.061 1.062-.193a2.78 2.78 0 0 0 .905-.576c.26-.248.468-.544.611-.87.143-.327.219-.678.223-1.033V81.694a1.054 1.054 0 0 0-.285-.716Zm-6.28-3.56 4.092 4.276h-3.283a.88.88 0 0 1-.599-.288.83.83 0 0 1-.21-.62v-3.367Z" fill="url(#f)"/><path d="m141.052 79.632-4.858-5.344a1.096 1.096 0 0 0-.81-.353h-8.753a2.822 2.822 0 0 0-1.062.194 2.767 2.767 0 0 0-.905.576 2.688 2.688 0 0 0-.611.87 2.647 2.647 0 0 0-.223 1.032V92.64c.004.356.08.706.223 1.033.143.326.35.622.611.87.26.248.567.444.905.576.337.132.698.198 1.062.194h11.904c.364.004.725-.062 1.062-.194a2.77 2.77 0 0 0 .905-.576c.261-.248.468-.544.611-.87.143-.327.219-.677.223-1.033V80.348c0-.264-.102-.52-.284-.716Zm-6.281-3.559 4.093 4.275h-3.283a.88.88 0 0 1-.6-.288.825.825 0 0 1-.21-.62v-3.367Z" fill="url(#g)"/><path d="M211.346 137.63a1.008 1.008 0 0 0 .012-1.425L205 129.713a1.007 1.007 0 1 0-1.437 1.408l5.651 5.77-5.748 5.63a1.008 1.008 0 0 0-.012 1.425c.39.398 1.028.406 1.425.018l6.467-6.334Zm-55.131-.384 54.416.67.017-2.015-54.416-.67-.017 2.015Z" fill="url(#h)"/><path d="M155.517 152.418a1.008 1.008 0 0 1-.011-1.425l6.358-6.493a1.007 1.007 0 1 1 1.437 1.408l-5.652 5.771 5.748 5.629c.396.389.402 1.027.011 1.425a1.008 1.008 0 0 1-1.425.018l-6.466-6.333Zm55.131-.392-54.416.678-.016-2.015 54.415-.679.017 2.016Z" fill="url(#i)"/><defs><linearGradient id="a" x1="70.676" y1="263.73" x2="41.31" y2="128.041" gradientUnits="userSpaceOnUse"><stop stop-color="#0D9AFF" stop-opacity=".01"/><stop offset="1" stop-color="#0D9AFF" stop-opacity=".12"/></linearGradient><linearGradient id="b" x1="20.305" y1="169.483" x2="142.771" y2="135.325" gradientUnits="userSpaceOnUse"><stop offset=".158" stop-color="#A5BDFF" stop-opacity=".46"/><stop offset="1" stop-color="#A5BDFF" stop-opacity="0"/></linearGradient><linearGradient id="c" x1="300.649" y1="238.265" x2="278.364" y2="135.21" gradientUnits="userSpaceOnUse"><stop stop-color="#0D9AFF" stop-opacity=".01"/><stop offset="1" stop-color="#0D9AFF" stop-opacity=".12"/></linearGradient><linearGradient id="d" x1="261.49" y1="164.204" x2="356.871" y2="138.003" gradientUnits="userSpaceOnUse"><stop offset=".158" stop-color="#A5BDFF" stop-opacity=".46"/><stop offset="1" stop-color="#A5BDFF" stop-opacity="0"/></linearGradient><linearGradient id="e" x1="192.057" y1="90.885" x2="170.741" y2="45.328" gradientUnits="userSpaceOnUse"><stop stop-color="#0D9AFF" stop-opacity=".47"/><stop offset="1" stop-color="#0D9AFF" stop-opacity=".17"/></linearGradient><linearGradient id="f" x1="248.813" y1="117.597" x2="232.607" y2="82.417" gradientUnits="userSpaceOnUse"><stop stop-color="#0F9BFF" stop-opacity=".38"/><stop offset="1" stop-color="#0D9AFF" stop-opacity=".12"/><stop offset="1" stop-color="#0D9AFF" stop-opacity=".52"/></linearGradient><linearGradient id="g" x1="132.583" y1="116.251" x2="116.376" y2="81.071" gradientUnits="userSpaceOnUse"><stop stop-color="#0F9BFF" stop-opacity=".38"/><stop offset="1" stop-color="#0D9AFF" stop-opacity=".12"/><stop offset="1" stop-color="#0D9AFF" stop-opacity=".52"/></linearGradient><linearGradient id="h" x1="210.639" y1="136.899" x2="152.374" y2="136.431" gradientUnits="userSpaceOnUse"><stop stop-color="#0146FE"/><stop offset="1" stop-color="#0146FE" stop-opacity="0"/></linearGradient><linearGradient id="i" x1="156.224" y1="151.687" x2="214.489" y2="151.225" gradientUnits="userSpaceOnUse"><stop stop-color="#0146FE"/><stop offset="1" stop-color="#0146FE" stop-opacity="0"/></linearGradient></defs></svg>